<?xml version="1.0" encoding="UTF-8"?>
<svg xmlns="http://www.w3.org/2000/svg" xmlns:xlink="http://www.w3.org/1999/xlink" width="375pt" height="374.999991pt" viewBox="0 0 375 374.999991" version="1.2">
<defs>
<clipPath id="clip1">
  <path d="M 38 69 L 341.765625 69 L 341.765625 373 L 38 373 Z M 38 69 "/>
</clipPath>
</defs>
<g id="surface1">
<g clip-path="url(#clip1)" clip-rule="nonzero">
<path style=" stroke:none;fill-rule:nonzero;fill:rgb(94.119263%,76.858521%,9.799194%);fill-opacity:1;" d="M 341.839844 221.074219 C 341.863281 303.164062 276.425781 370.355469 194.21875 372.652344 C 112.011719 374.949219 42.914062 311.519531 38.332031 229.554688 C 33.753906 147.597656 95.363281 76.890625 177.3125 70.050781 C 181.488281 69.671875 185.730469 69.480469 189.96875 69.480469 C 194.207031 69.480469 198.449219 69.671875 202.625 70.050781 C 281.304688 76.617188 341.816406 142.265625 341.839844 221.074219 Z M 341.839844 221.074219 "/>
</g>
<path style=" stroke:none;fill-rule:nonzero;fill:rgb(92.549133%,94.119263%,94.509888%);fill-opacity:1;" d="M 316.527344 221.074219 C 316.527344 290.847656 259.867188 347.402344 189.96875 347.402344 C 120.070312 347.402344 63.410156 290.847656 63.410156 221.074219 C 63.410156 151.304688 120.070312 94.75 189.96875 94.75 C 259.867188 94.75 316.527344 151.304688 316.527344 221.074219 Z M 316.527344 221.074219 "/>
<path style=" stroke:none;fill-rule:nonzero;fill:rgb(100%,100%,100%);fill-opacity:1;" d="M 297.609375 154.6875 C 247.695312 123.875 183.101562 131.375 141.601562 172.796875 C 100.101562 214.222656 92.589844 278.695312 123.464844 328.515625 C 78.925781 301.117188 55.871094 249.1875 65.449219 197.847656 C 75.03125 146.511719 115.265625 106.34375 166.699219 96.785156 C 218.128906 87.222656 270.15625 110.234375 297.609375 154.6875 Z M 297.609375 154.6875 "/>
<path style=" stroke:none;fill-rule:nonzero;fill:rgb(58.428955%,64.709473%,64.709473%);fill-opacity:1;" d="M 189.96875 353.71875 C 116.578125 353.71875 57.078125 294.332031 57.078125 221.074219 C 57.078125 147.820312 116.578125 88.429688 189.96875 88.429688 C 263.359375 88.429688 322.859375 147.820312 322.859375 221.074219 C 322.773438 294.300781 263.324219 353.636719 189.96875 353.71875 Z M 189.96875 101.0625 C 123.566406 101.0625 69.738281 154.792969 69.738281 221.074219 C 69.738281 287.359375 123.566406 341.089844 189.96875 341.089844 C 256.371094 341.089844 310.199219 287.359375 310.199219 221.074219 C 310.128906 154.824219 256.339844 101.136719 189.96875 101.0625 Z M 189.96875 101.0625 "/>
<path style=" stroke:none;fill-rule:nonzero;fill:rgb(58.428955%,64.709473%,64.709473%);fill-opacity:1;" d="M 167.066406 189.558594 C 164.882812 189.558594 162.851562 188.4375 161.695312 186.589844 L 133.980469 142.308594 C 132.125 139.347656 133.035156 135.441406 136.003906 133.589844 C 138.972656 131.746094 142.886719 132.648438 144.734375 135.617188 L 172.453125 179.894531 C 173.671875 181.839844 173.738281 184.292969 172.625 186.300781 C 171.511719 188.308594 169.390625 189.554688 167.09375 189.558594 Z M 167.066406 189.558594 "/>
<path style=" stroke:none;fill-rule:nonzero;fill:rgb(58.428955%,64.709473%,64.709473%);fill-opacity:1;" d="M 141.171875 310.640625 C 138.914062 310.640625 136.828125 309.4375 135.699219 307.480469 C 134.570312 305.527344 134.570312 303.121094 135.699219 301.167969 L 161.832031 255.882812 C 162.957031 253.910156 165.050781 252.6875 167.320312 252.683594 C 169.59375 252.683594 171.691406 253.890625 172.820312 255.855469 C 173.953125 257.824219 173.941406 260.242188 172.792969 262.195312 L 146.660156 307.484375 C 145.53125 309.441406 143.4375 310.644531 141.171875 310.640625 Z M 141.171875 310.640625 "/>
<path style=" stroke:none;fill-rule:nonzero;fill:rgb(58.428955%,64.709473%,64.709473%);fill-opacity:1;" d="M 212.871094 189.558594 C 210.570312 189.554688 208.453125 188.308594 207.339844 186.300781 C 206.226562 184.292969 206.292969 181.839844 207.511719 179.894531 L 235.226562 135.617188 C 237.078125 132.648438 240.992188 131.746094 243.960938 133.589844 C 246.929688 135.441406 247.839844 139.347656 245.984375 142.308594 L 218.265625 186.589844 C 217.105469 188.441406 215.0625 189.570312 212.871094 189.558594 Z M 212.871094 189.558594 "/>
<path style=" stroke:none;fill-rule:nonzero;fill:rgb(58.428955%,64.709473%,64.709473%);fill-opacity:1;" d="M 238.765625 310.640625 C 236.5 310.644531 234.410156 309.441406 233.277344 307.484375 L 207.144531 262.195312 C 205.996094 260.242188 205.984375 257.824219 207.117188 255.855469 C 208.246094 253.890625 210.34375 252.683594 212.617188 252.683594 C 214.886719 252.6875 216.980469 253.910156 218.105469 255.882812 L 244.238281 301.167969 C 245.371094 303.121094 245.371094 305.527344 244.238281 307.480469 C 243.109375 309.4375 241.023438 310.640625 238.765625 310.640625 Z M 238.765625 310.640625 "/>
<path style=" stroke:none;fill-rule:nonzero;fill:rgb(82.348633%,33.729553%,15.289307%);fill-opacity:1;" d="M 232.429688 208.445312 L 204.082031 208.445312 C 200.496094 204.421875 195.363281 202.125 189.96875 202.125 C 184.574219 202.125 179.441406 204.421875 175.855469 208.445312 L 147.507812 208.445312 C 150.140625 199.574219 155.523438 191.765625 162.886719 186.144531 C 165.550781 184.054688 168.460938 182.289062 171.554688 180.902344 C 183.234375 175.511719 196.703125 175.511719 208.386719 180.902344 C 211.363281 182.222656 214.164062 183.898438 216.738281 185.890625 C 224.261719 191.527344 229.765625 199.4375 232.429688 208.445312 Z M 232.429688 208.445312 "/>
<path style=" stroke:none;fill-rule:nonzero;fill:rgb(82.348633%,33.729553%,15.289307%);fill-opacity:1;" d="M 232.429688 233.707031 C 229.796875 242.578125 224.417969 250.382812 217.050781 256.007812 C 214.386719 258.097656 211.476562 259.859375 208.386719 261.25 C 196.703125 266.640625 183.234375 266.640625 171.554688 261.25 C 168.574219 259.929688 165.773438 258.253906 163.199219 256.257812 C 155.675781 250.625 150.171875 242.714844 147.507812 233.707031 L 175.855469 233.707031 C 179.441406 237.726562 184.574219 240.027344 189.96875 240.027344 C 195.363281 240.027344 200.496094 237.726562 204.082031 233.707031 Z M 232.429688 233.707031 "/>
<path style=" stroke:none;fill-rule:nonzero;fill:rgb(74.119568%,76.469421%,78.039551%);fill-opacity:1;" d="M 189.96875 63.128906 C 172.5 63.113281 158.347656 48.96875 158.355469 31.535156 C 158.363281 14.09375 172.523438 -0.0390625 189.996094 -0.0390625 C 207.460938 -0.0390625 221.628906 14.09375 221.636719 31.535156 C 221.640625 48.96875 207.488281 63.113281 190.019531 63.128906 Z M 189.96875 12.632812 C 179.484375 12.632812 170.984375 21.117188 170.984375 31.582031 C 170.984375 42.046875 179.484375 50.53125 189.96875 50.53125 C 200.453125 50.53125 208.953125 42.046875 208.953125 31.582031 C 208.953125 21.117188 200.453125 12.632812 189.96875 12.632812 Z M 189.96875 12.632812 "/>
<path style=" stroke:none;fill-rule:nonzero;fill:rgb(69.40918%,56.469727%,27.449036%);fill-opacity:1;" d="M 202.625 50.53125 L 202.625 70.050781 C 198.449219 69.671875 194.207031 69.480469 189.96875 69.480469 C 185.730469 69.480469 181.488281 69.671875 177.3125 70.050781 L 177.3125 50.53125 C 177.332031 43.5625 182.988281 37.921875 189.96875 37.898438 C 196.9375 37.953125 202.574219 43.578125 202.625 50.53125 Z M 202.625 50.53125 "/>
<path style=" stroke:none;fill-rule:nonzero;fill:rgb(74.119568%,76.469421%,78.039551%);fill-opacity:1;" d="M 208.953125 221.074219 C 208.984375 230.253906 202.449219 238.144531 193.414062 239.835938 C 184.378906 241.53125 175.421875 236.542969 172.117188 227.980469 C 168.816406 219.414062 172.109375 209.71875 179.949219 204.925781 C 187.789062 200.132812 197.941406 201.613281 204.082031 208.445312 C 207.214844 211.90625 208.949219 216.410156 208.953125 221.074219 Z M 208.953125 221.074219 "/>
<path style=" stroke:none;fill-rule:nonzero;fill:rgb(49.798584%,50.979614%,51.759338%);fill-opacity:1;" d="M 289.445312 223.410156 L 261.855469 231.308594 C 256.578125 232.773438 251.132812 233.558594 245.652344 233.648438 L 245.59375 233.648438 C 245.214844 233.695312 244.832031 233.71875 244.453125 233.707031 L 204.082031 233.707031 C 210.578125 226.535156 210.578125 215.617188 204.082031 208.445312 L 244.894531 208.445312 C 250.628906 208.511719 256.332031 209.320312 261.855469 210.84375 L 289.445312 218.738281 C 290.488281 219.039062 291.207031 219.992188 291.207031 221.074219 C 291.207031 222.160156 290.488281 223.113281 289.445312 223.410156 Z M 289.445312 223.410156 "/>
<path style=" stroke:none;fill-rule:nonzero;fill:rgb(49.798584%,50.979614%,51.759338%);fill-opacity:1;" d="M 170.984375 221.074219 C 170.988281 225.742188 172.722656 230.246094 175.855469 233.707031 L 135.042969 233.707031 C 129.308594 233.636719 123.609375 232.832031 118.082031 231.308594 L 90.492188 223.410156 C 89.449219 223.113281 88.730469 222.160156 88.730469 221.074219 C 88.730469 219.992188 89.449219 219.039062 90.492188 218.738281 L 118.082031 210.84375 C 123.359375 209.378906 128.804688 208.59375 134.285156 208.503906 L 134.34375 208.503906 C 134.722656 208.453125 135.105469 208.433594 135.484375 208.445312 L 175.855469 208.445312 C 172.722656 211.90625 170.988281 216.410156 170.984375 221.074219 Z M 170.984375 221.074219 "/>
<path style=" stroke:none;fill-rule:nonzero;fill:rgb(94.898987%,61.178589%,12.159729%);fill-opacity:1;" d="M 208.386719 180.902344 C 196.703125 175.511719 183.234375 175.511719 171.554688 180.902344 L 185.980469 123.109375 C 186.457031 121.296875 188.09375 120.03125 189.96875 120.03125 C 191.84375 120.03125 193.480469 121.296875 193.957031 123.109375 Z M 208.386719 180.902344 "/>
<path style=" stroke:none;fill-rule:nonzero;fill:rgb(94.898987%,61.178589%,12.159729%);fill-opacity:1;" d="M 208.386719 261.25 L 193.957031 319.042969 C 193.480469 320.855469 191.84375 322.121094 189.96875 322.121094 C 188.09375 322.121094 186.457031 320.855469 185.980469 319.042969 L 171.554688 261.25 C 183.234375 266.640625 196.703125 266.640625 208.386719 261.25 Z M 208.386719 261.25 "/>
<path style=" stroke:none;fill-rule:nonzero;fill:rgb(94.898987%,61.178589%,12.159729%);fill-opacity:1;" d="M 162.886719 186.144531 C 155.523438 191.765625 150.140625 199.574219 147.507812 208.445312 L 135.484375 208.445312 C 135.105469 208.433594 134.722656 208.453125 134.34375 208.503906 L 134.285156 208.503906 L 101.25 179.007812 C 99.855469 177.765625 99.488281 175.730469 100.351562 174.078125 C 101.21875 172.421875 103.097656 171.566406 104.921875 171.996094 Z M 162.886719 186.144531 "/>
<path style=" stroke:none;fill-rule:nonzero;fill:rgb(94.898987%,61.178589%,12.159729%);fill-opacity:1;" d="M 275.015625 270.15625 L 217.050781 256.007812 C 224.417969 250.382812 229.796875 242.578125 232.429688 233.707031 L 244.453125 233.707031 C 244.832031 233.71875 245.214844 233.695312 245.59375 233.648438 L 245.652344 233.648438 L 278.6875 263.144531 C 280.082031 264.386719 280.449219 266.421875 279.585938 268.074219 C 278.71875 269.730469 276.839844 270.585938 275.015625 270.15625 Z M 275.015625 270.15625 "/>
<path style=" stroke:none;fill-rule:nonzero;fill:rgb(94.898987%,61.178589%,12.159729%);fill-opacity:1;" d="M 163.199219 256.257812 L 105.425781 270.976562 C 103.605469 271.421875 101.707031 270.582031 100.816406 268.933594 C 99.925781 267.285156 100.257812 265.242188 101.628906 263.964844 L 135.042969 233.707031 L 147.507812 233.707031 C 150.171875 242.714844 155.675781 250.625 163.199219 256.257812 Z M 163.199219 256.257812 "/>
<path style=" stroke:none;fill-rule:nonzero;fill:rgb(94.898987%,61.178589%,12.159729%);fill-opacity:1;" d="M 278.308594 178.1875 L 244.894531 208.445312 L 232.429688 208.445312 C 229.765625 199.4375 224.261719 191.527344 216.738281 185.890625 L 274.511719 171.175781 C 276.332031 170.726562 278.230469 171.570312 279.121094 173.21875 C 280.015625 174.867188 279.679688 176.90625 278.308594 178.1875 Z M 278.308594 178.1875 "/>
</g>
</svg>
