<?xml version="1.0" encoding="UTF-8"?>
<svg xmlns="http://www.w3.org/2000/svg" xmlns:xlink="http://www.w3.org/1999/xlink" width="375pt" height="374.999991pt" viewBox="0 0 375 374.999991" version="1.2">
<defs>
<clipPath id="clip1">
  <path d="M 272 31 L 316.96875 31 L 316.96875 105 L 272 105 Z M 272 31 "/>
</clipPath>
</defs>
<g id="surface1">
<path style=" stroke:none;fill-rule:nonzero;fill:rgb(96.469116%,50.979614%,43.528748%);fill-opacity:1;" d="M 139.675781 67.734375 C 136.3125 68 133.566406 69.109375 131.800781 70.902344 L 131.773438 70.863281 C 122.609375 72.136719 114.667969 66.050781 114.597656 60.171875 C 114.527344 55.160156 117.539062 50.222656 124.78125 51.066406 C 127.375 56.648438 132.109375 62.34375 139.675781 67.734375 "/>
<path style=" stroke:none;fill-rule:nonzero;fill:rgb(25.878906%,73.329163%,34.118652%);fill-opacity:1;" d="M 227.769531 121.0625 C 226.160156 119.183594 224.5625 117.386719 223.105469 115.675781 C 184.957031 73.316406 225.667969 66.46875 227.503906 42.4375 C 230.210938 23.578125 209.109375 8.832031 197.003906 16.746094 C 195.097656 7.949219 186.273438 1.296875 175.359375 1.296875 C 164.445312 1.296875 155.589844 7.949219 153.683594 16.746094 C 139.5625 7.527344 114.175781 28.25 124.78125 51.066406 C 126.730469 55.261719 129.882812 59.511719 134.519531 63.648438 C 138.316406 67.015625 140.304688 72.039062 140.152344 77.121094 C 139.421875 102.472656 122.804688 120.9375 122.804688 120.9375 C 109.75 136.160156 92.503906 158.144531 92.503906 188.101562 C 92.503906 225.871094 130.972656 245.332031 175.289062 245.332031 C 219.601562 245.332031 258.074219 225.871094 258.074219 188.101562 C 258.074219 157.753906 240.941406 136.355469 227.769531 121.0625 "/>
<path style=" stroke:none;fill-rule:nonzero;fill:rgb(96.469116%,50.979614%,43.528748%);fill-opacity:1;" d="M 286.125 64.660156 C 292.175781 86.210938 283.53125 95.976562 283.617188 96.832031 C 279.496094 96.832031 255.089844 104.996094 249.289062 108.449219 C 242.230469 112.574219 236.246094 118.71875 227.769531 121.0625 C 226.160156 119.183594 224.5625 117.386719 223.105469 115.675781 C 218.539062 110.34375 205.972656 100.242188 205.984375 82.03125 C 206 79.152344 204.878906 76.390625 202.875 74.328125 C 196.792969 68.082031 191.792969 61.546875 185.292969 62.007812 C 180.179688 62.386719 171.996094 64.226562 166.390625 65.671875 C 161.8125 66.847656 157.761719 66.160156 154.792969 64.605469 C 148.753906 61.347656 147.199219 54.277344 154.554688 50.953125 C 169.222656 44.386719 175.359375 39.601562 190.8125 38.226562 C 201.964844 37.230469 213.535156 39.488281 227.503906 42.4375 C 231.539062 43.277344 235.742188 44.191406 240.210938 45.101562 C 248.996094 46.941406 270.027344 50.222656 274.496094 48.316406 C 276.191406 49.171875 284.105469 54.332031 286.125 64.660156 "/>
<path style=" stroke:none;fill-rule:nonzero;fill:rgb(96.469116%,50.979614%,43.528748%);fill-opacity:1;" d="M 144.03125 67.886719 C 142.503906 67.691406 141.046875 67.664062 139.675781 67.734375 C 136.3125 68 133.566406 69.109375 131.800781 70.902344 C 130.273438 72.363281 129.488281 74.355469 129.558594 76.640625 C 129.714844 81.582031 133.035156 84.582031 137.574219 85.199219 C 138.835938 85.425781 140.25 85.425781 141.648438 85.199219 C 146.667969 84.5 149.230469 82.210938 150.15625 79.53125 C 151.851562 74.648438 148.179688 68.449219 144.03125 67.886719 "/>
<path style=" stroke:none;fill-rule:nonzero;fill:rgb(96.469116%,50.979614%,43.528748%);fill-opacity:1;" d="M 137.460938 85.171875 C 143.949219 86.058594 149.175781 100.492188 135.136719 102.527344 C 133.679688 102.710938 132.304688 102.710938 131.003906 102.527344 C 126.503906 101.867188 123.183594 98.851562 123.03125 93.929688 C 122.835938 87.699219 129.027344 84.0625 137.460938 85.171875 "/>
<path style=" stroke:none;fill-rule:nonzero;fill:rgb(96.469116%,50.979614%,43.528748%);fill-opacity:1;" d="M 131.789062 102.726562 C 138.246094 103.609375 143.515625 118.058594 129.417969 120.082031 C 127.332031 120.390625 125.34375 120.234375 123.632812 119.703125 C 119.992188 118.636719 117.441406 115.757812 117.328125 111.480469 C 117.132812 105.25 123.324219 101.617188 131.789062 102.726562 "/>
<path style=" stroke:none;fill-rule:nonzero;fill:rgb(27.449036%,21.569824%,49.409485%);fill-opacity:1;" d="M 97.027344 354.851562 C 97.628906 357.097656 98.246094 359.175781 98.90625 361.125 C 99.96875 364.265625 98.273438 367.632812 95.039062 368.378906 L 74.21875 373.078125 C 71.667969 373.683594 69.050781 372.347656 68.027344 369.90625 C 63.894531 360.171875 57.660156 323.03125 58.277344 309.058594 C 58.359375 306.910156 60.476562 305.410156 62.589844 305.03125 L 84.179688 302.785156 C 87.527344 302.140625 90.625 304.734375 90.597656 308.132812 C 90.597656 309.421875 90.625 310.921875 90.695312 312.621094 C 91.214844 323.3125 93.414062 341.214844 97.027344 354.851562 "/>
<path style=" stroke:none;fill-rule:nonzero;fill:rgb(96.469116%,50.979614%,43.528748%);fill-opacity:1;" d="M 229.285156 315.316406 L 229.285156 315.34375 C 244.105469 313.785156 265.710938 314.976562 274.328125 320.058594 C 284.34375 326.019531 281.402344 340.386719 268.246094 339.785156 C 235.6875 338.253906 216.128906 347.878906 202.273438 350.6875 C 173.957031 356.355469 168.226562 354.628906 147.800781 352.777344 C 123.074219 350.53125 105.714844 357.589844 98.441406 359.636719 C 97.953125 358.148438 97.476562 356.535156 97.027344 354.851562 C 93.414062 341.199219 91.214844 323.296875 90.695312 312.621094 C 90.667969 311.808594 90.625 311.0625 90.625 310.320312 C 101.386719 307.484375 114.765625 299.824219 123.816406 294.871094 C 142.226562 284.796875 154.625 279.199219 183.976562 281.65625 C 199.402344 282.933594 220.261719 292.375 229.285156 295.011719 C 240.113281 298.183594 240.5625 312.59375 229.285156 315.316406 "/>
<path style=" stroke:none;fill-rule:nonzero;fill:rgb(18.03894%,51.368713%,41.958618%);fill-opacity:1;" d="M 154.664062 30.960938 C 153.265625 30.960938 151.917969 30.117188 151.34375 28.714844 C 149.664062 24.574219 149.273438 20.167969 150.183594 15.972656 C 150.601562 14.039062 152.523438 12.789062 154.441406 13.238281 C 156.390625 13.660156 157.609375 15.566406 157.1875 17.503906 C 156.570312 20.308594 156.851562 23.1875 158 26.019531 C 158.742188 27.859375 157.859375 29.949219 156.023438 30.707031 C 155.578125 30.875 155.128906 30.960938 154.664062 30.960938 "/>
<path style=" stroke:none;fill-rule:nonzero;fill:rgb(18.03894%,51.368713%,41.958618%);fill-opacity:1;" d="M 196.050781 30.960938 C 195.605469 30.960938 195.15625 30.875 194.707031 30.707031 C 192.871094 29.960938 191.988281 27.871094 192.71875 26.035156 C 193.878906 23.144531 194.132812 20.296875 193.503906 17.546875 C 193.066406 15.609375 194.273438 13.6875 196.207031 13.238281 C 198.140625 12.789062 200.058594 14.011719 200.507812 15.945312 C 201.472656 20.140625 201.082031 24.449219 199.371094 28.714844 C 198.8125 30.117188 197.46875 30.960938 196.050781 30.960938 "/>
<path style=" stroke:none;fill-rule:nonzero;fill:rgb(100%,100%,100%);fill-opacity:1;" d="M 176.660156 153.277344 C 171.101562 153.277344 166.574219 149.726562 166.574219 145.363281 C 166.574219 140.984375 171.101562 137.421875 176.660156 137.421875 C 182.238281 137.421875 186.777344 140.984375 186.777344 145.363281 C 186.777344 147.355469 188.375 148.957031 190.363281 148.957031 C 192.339844 148.957031 193.949219 147.355469 193.949219 145.363281 C 193.949219 138.109375 188.066406 132.019531 180.25 130.574219 L 180.25 124.078125 C 180.25 122.085938 178.636719 120.488281 176.660156 120.488281 C 174.671875 120.488281 173.074219 122.085938 173.074219 124.078125 L 173.074219 130.574219 C 165.273438 132.035156 159.402344 138.109375 159.402344 145.363281 C 159.402344 153.699219 167.148438 160.460938 176.660156 160.460938 C 182.238281 160.460938 186.777344 164.039062 186.777344 168.414062 C 186.777344 172.777344 182.238281 176.328125 176.660156 176.328125 C 171.101562 176.328125 166.574219 172.777344 166.574219 168.414062 C 166.574219 166.4375 164.976562 164.824219 162.988281 164.824219 C 161.011719 164.824219 159.402344 166.4375 159.402344 168.414062 C 159.402344 175.667969 165.273438 181.730469 173.074219 183.175781 L 173.074219 189.714844 C 173.074219 191.691406 174.671875 193.304688 176.660156 193.304688 C 178.636719 193.304688 180.25 191.691406 180.25 189.714844 L 180.25 183.175781 C 188.066406 181.730469 193.949219 175.667969 193.949219 168.414062 C 193.949219 160.082031 186.1875 153.277344 176.660156 153.277344 "/>
<path style=" stroke:none;fill-rule:nonzero;fill:rgb(92.939758%,18.818665%,28.62854%);fill-opacity:1;" d="M 173.914062 323.648438 C 172.921875 323.648438 171.914062 323.226562 171.210938 322.398438 C 169.910156 320.914062 170.078125 318.640625 171.5625 317.335938 C 186.105469 304.707031 201.125 307.710938 214.363281 310.363281 C 216.996094 310.894531 219.644531 311.429688 222.265625 311.835938 C 224.71875 312.226562 226.789062 312.214844 228.429688 311.820312 C 230.363281 311.359375 232.296875 312.535156 232.757812 314.460938 C 233.234375 316.394531 232.042969 318.332031 230.125 318.808594 C 227.546875 319.425781 224.535156 319.46875 221.160156 318.933594 C 218.425781 318.5 215.695312 317.964844 212.960938 317.40625 C 200.199219 314.851562 188.136719 312.425781 176.269531 322.765625 C 175.597656 323.355469 174.757812 323.648438 173.914062 323.648438 "/>
<path style=" stroke:none;fill-rule:nonzero;fill:rgb(92.939758%,18.818665%,28.62854%);fill-opacity:1;" d="M 223.105469 88.566406 C 214.25 88.566406 207.875 83.839844 203.871094 80.289062 C 202.382812 78.972656 202.246094 76.699219 203.546875 75.226562 C 204.863281 73.738281 207.132812 73.597656 208.621094 74.902344 C 213.675781 79.378906 218.144531 81.382812 223.105469 81.382812 C 225.09375 81.382812 226.691406 82.984375 226.691406 84.976562 C 226.691406 86.953125 225.09375 88.566406 223.105469 88.566406 "/>
<g clip-path="url(#clip1)" clip-rule="nonzero">
<path style=" stroke:none;fill-rule:nonzero;fill:rgb(27.449036%,21.569824%,49.409485%);fill-opacity:1;" d="M 275.363281 51.035156 C 274.648438 48.765625 273.949219 46.644531 273.191406 44.679688 C 272 41.496094 273.613281 37.988281 276.890625 37.117188 L 298.03125 31.519531 C 300.625 30.804688 303.355469 32.082031 304.492188 34.535156 C 309.085938 44.34375 316.847656 82.140625 316.75 96.46875 C 316.734375 98.671875 314.632812 100.285156 312.476562 100.761719 L 290.46875 103.863281 C 287.046875 104.648438 283.785156 102.109375 283.6875 98.628906 C 283.628906 97.324219 283.546875 95.78125 283.417969 94.039062 C 282.496094 83.109375 279.566406 64.855469 275.363281 51.035156 "/>
</g>
</g>
</svg>
